<svg xmlns="http://www.w3.org/2000/svg" viewBox="0 0 60 40" width="60" height="40">
  <rect width="60" height="13.333" y="0" fill="#FF9933"/>
  <rect width="60" height="13.334" y="13.333" fill="#FFFFFF"/>
  <rect width="60" height="13.333" y="26.667" fill="#138808"/>
  <circle cx="30" cy="20" r="5.2" fill="none" stroke="#000080" stroke-width="0.8"/>
  <circle cx="30" cy="20" r="1.2" fill="#000080"/>
  <g stroke="#000080" stroke-width="0.5">
    <line x1="30" y1="18.8" x2="30" y2="15.1"/>
    <line x1="30" y1="21.2" x2="30" y2="24.9"/>
    <line x1="28.8" y1="20" x2="25.1" y2="20"/>
    <line x1="31.2" y1="20" x2="34.9" y2="20"/>
    <line x1="30.85" y1="19.15" x2="33.46" y2="16.54"/>
    <line x1="29.15" y1="20.85" x2="26.54" y2="23.46"/>
    <line x1="29.15" y1="19.15" x2="26.54" y2="16.54"/>
    <line x1="30.85" y1="20.85" x2="33.46" y2="23.46"/>
    <line x1="30.45" y1="18.9" x2="31.9" y2="15.3"/>
    <line x1="29.55" y1="21.1" x2="28.1" y2="24.7"/>
    <line x1="28.9" y1="19.55" x2="25.3" y2="18.1"/>
    <line x1="31.1" y1="20.45" x2="34.7" y2="21.9"/>
    <line x1="31.1" y1="19.55" x2="34.7" y2="18.1"/>
    <line x1="28.9" y1="20.45" x2="25.3" y2="21.9"/>
    <line x1="30.45" y1="21.1" x2="31.9" y2="24.7"/>
    <line x1="29.55" y1="18.9" x2="28.1" y2="15.3"/>
    <line x1="30.6" y1="19" x2="32.5" y2="15.8"/>
    <line x1="29.4" y1="21" x2="27.5" y2="24.2"/>
    <line x1="29" y1="19.4" x2="25.8" y2="17.5"/>
    <line x1="31" y1="20.6" x2="34.2" y2="22.5"/>
    <line x1="31" y1="19.4" x2="34.2" y2="17.5"/>
    <line x1="29" y1="20.6" x2="25.8" y2="22.5"/>
    <line x1="30.6" y1="21" x2="32.5" y2="24.2"/>
    <line x1="29.4" y1="19" x2="27.5" y2="15.8"/>
  </g>
</svg>
